<svg xmlns="http://www.w3.org/2000/svg" fill-rule="evenodd" stroke-linejoin="round" stroke-miterlimit="2"
     clip-rule="evenodd" viewBox="0 0 883 121">
    <g transform="translate(-199.15 -259.658)">
        <g>
            <g transform="translate(189.946 359.416) scale(124.37)">
                <path fill="url(#_Linear1)" fill-rule="nonzero"
                      d="M.074-.8h.344l.344-.001v.155H.256v.283h.34a.253.253 0 01.018-.044l.049.103.049.102H.257v.297a.02.02 0 000 .011l.002.011c.01.009.025.017.047.026l.04.019H.211L.075.163v-.965L.074-.8z"/>
            </g>
            <g transform="translate(293.547 359.416) scale(124.37)">
                <path fill="url(#_Linear2)" fill-rule="nonzero"
                      d="M.075-.8H.48a.367.367 0 01.065.005.415.415 0 01.138.045.294.294 0 01.155.232.292.292 0 01-.117.259.336.336 0 01-.135.057l.063.085.073.097.063.085a.209.209 0 00.02.022C.812.094.82.102.83.109l.023.018.028.019.025.017H.652L.467-.083.281-.328h.215a.124.124 0 00.102-.047.183.183 0 00.038-.103.166.166 0 00-.027-.107.11.11 0 00-.045-.04.143.143 0 00-.061-.014h-.25v.744a.137.137 0 00.026.02 1.5 1.5 0 01.065.038H.075v-.964.001z"/>
            </g>
            <g transform="translate(630.039 359.262) scale(123.711)">
                <path fill="url(#_Linear3)" fill-rule="nonzero"
                      d="M.063-.8h.826v.158H.34v.249h.459C.78-.35.749-.285.704-.2L.698-.219a.093.093 0 00-.01-.022H.341v.257h.55v.147H.152v-.72l.001-.097c0-.049-.001-.081-.002-.097L.126-.768.092-.787.065-.8H.063z"/>
            </g>
            <g transform="translate(744.868 359.416) scale(124.37)">
                <path fill="url(#_Linear4)" fill-rule="nonzero"
                      d="M.341-.8L.34-.373h.446L.787-.8h.192L.978.116.999.13a.264.264 0 00.019.011l.024.012.021.01H.785L.786-.18.34-.181.339.163H.147l.001-.915a.19.19 0 00-.021-.015L.108-.778.084-.79.063-.8h.278z"/>
            </g>
            <g transform="translate(-460.155 -386.217) scale(2.48741)">
                <path fill="url(#_Linear5)" fill-rule="nonzero"
                      d="M577.721 259.658v3.584h-.021v23.871c0 2.367-.134 4.5-.4 6.4-.267 1.9-.667 3.55-1.2 4.95-1.067 2.767-3.017 5.05-5.85 6.85-2.8 1.734-6.484 2.6-11.05 2.6-4.434 0-8.05-.75-10.85-2.25-2.834-1.533-4.85-3.75-6.05-6.65-1.2-2.966-1.8-6.933-1.8-11.9v-25.45l-.1.05a7.687 7.687 0 00-.8-.7c-.267-.2-.65-.45-1.15-.75-.5-.3-.784-.466-.85-.5h9.088l3.795-.064-.417 30.471c-.331 10.903 17.296 11.311 17.425 0l-.04-26.928h-.043v-1.674l-2.847-1.91h13.16z"/>
            </g>
            <g transform="translate(-382.556 -357.97) scale(2.39107)">
                <path fill="url(#_Linear6)" fill-rule="nonzero"
                      d="M360.979 278.728c4.424-8.476 7.964-15.265 10.621-20.365l14.45 28.1 14.45-28.1c4.266 8.267 13.016 25.05 26.25 50.35h-16.9c.266-.166.7-.391 1.3-.675.6-.283 1.083-.516 1.45-.7a7.538 7.538 0 001.2-.775 4.66 4.66 0 001.05-1.1l-12.95-27.35c-1.7 3.067-4.3 7.875-7.8 14.425-3.5 6.55-6.184 11.525-8.05 14.925-1.534-2.8-4.067-7.508-7.6-14.125-3.534-6.616-6.284-11.691-8.25-15.225l-4.543 9.595-4.678-8.98z"/>
            </g>
            <g transform="translate(-347.617 -386.217) scale(2.48741)">
                <path fill="url(#_Linear7)" fill-rule="nonzero"
                      d="M541.804 259.658v48.455h16.271c4.217 0 8.649-.725 12.279-3.919 3.339-2.975 4.138-6.973 4.138-9.809 0-2.544-.581-6.325-3.485-9.085-1.234-1.161-3.121-2.54-6.315-3.048 1.303-.725 5.44-3.267 5.44-9.52 0-4.072-1.669-7.849-4.5-10.026-3.92-3.048-9.155-3.048-11.846-3.048h-11.982zm9.436 27.384h3.491c2.037 0 4.437 0 6.473.945 3.051 1.381 3.56 3.999 3.56 5.526 0 1.89-.654 4.217-2.981 5.599-2.108 1.236-4.726 1.308-6.471 1.308h-4.072v-13.378zm0-19.691h2.764c3.855 0 7.273 1.672 7.273 6.108 0 6.181-5.891 6.326-7.346 6.326h-2.691v-12.434z"/>
                <g transform="translate(1.247 -.103)">
                    <path fill="url(#_Linear8)" d="M540.559 261.68l-2.858-1.917h2.93l-.072 1.917z"/>
                </g>
                <g transform="matrix(1 0 0 -1 1.285 567.877)">
                    <path fill="url(#_Linear9)" d="M540.559 261.68l-2.858-1.917h2.93l-.072 1.917z"/>
                </g>
            </g>
            <g transform="translate(-51.4)">
                <path fill="url(#_Linear10)" fill-rule="nonzero"
                      d="M443.286 338.574c1.535-3.008 3.133-6.135 4.791-9.38 11.483-22.47 20.044-39.342 25.682-50.619l.125.125c.912-1.742 2.446-4.747 4.601-9.017 2.156-4.27 3.856-7.525 5.1-9.763 7.047 13.266 17.018 32.17 29.911 56.713 12.893 24.542 21.039 40.088 24.438 46.639 5.39 10.281 8.25 15.795 8.582 16.541-2.156 0-6.384.02-12.686.062-6.301.041-11.628.062-15.981.062a318.7 318.7 0 01-12.748-.249c.829-.58 2.052-1.264 3.669-2.052 1.616-.787 3.047-1.575 4.29-2.363 1.244-.787 2.28-1.679 3.11-2.674-13.018-27.195-23.88-49.748-32.585-67.657-2.16 4.247-10.821 21.81-25.983 52.686l-14.316-19.054z"/>
            </g>
        </g>
    </g>
    <defs>
        <linearGradient id="_Linear1" x1="0" x2="1" y1="0" y2="0" gradientTransform="matrix(0 -.963 .963 0 3.455 .16)"
                        gradientUnits="userSpaceOnUse">
            <stop offset="0" stop-color="#fff"/>
            <stop offset="1" stop-color="#656565"/>
        </linearGradient>
        <linearGradient id="_Linear2" x1="0" x2="1" y1="0" y2="0" gradientTransform="matrix(0 -.963 .963 0 2.622 .16)"
                        gradientUnits="userSpaceOnUse">
            <stop offset="0" stop-color="#fff"/>
            <stop offset="1" stop-color="#656565"/>
        </linearGradient>
        <linearGradient id="_Linear3" x1="0" x2="1" y1="0" y2="0" gradientTransform="rotate(-90 .04 .123) scale(.96813)"
                        gradientUnits="userSpaceOnUse">
            <stop offset="0" stop-color="#fff"/>
            <stop offset="1" stop-color="#656565"/>
        </linearGradient>
        <linearGradient id="_Linear4" x1="0" x2="1" y1="0" y2="0" gradientTransform="matrix(0 -.963 .963 0 -1.007 .16)"
                        gradientUnits="userSpaceOnUse">
            <stop offset="0" stop-color="#fff"/>
            <stop offset="1" stop-color="#656565"/>
        </linearGradient>
        <linearGradient id="_Linear5" x1="0" x2="1" y1="0" y2="0"
                        gradientTransform="rotate(-90 370.96 -63.152) scale(48.15)" gradientUnits="userSpaceOnUse">
            <stop offset="0" stop-color="#fff"/>
            <stop offset="1" stop-color="#656565"/>
        </linearGradient>
        <linearGradient id="_Linear6" x1="0" x2="1" y1="0" y2="0"
                        gradientTransform="rotate(-90 363.772 -55.376) scale(50.0899)" gradientUnits="userSpaceOnUse">
            <stop offset="0" stop-color="#fff"/>
            <stop offset="1" stop-color="#656565"/>
        </linearGradient>
        <linearGradient id="_Linear7" x1="0" x2="1" y1="0" y2="0"
                        gradientTransform="rotate(-90 348.339 -40.53) scale(48.15)" gradientUnits="userSpaceOnUse">
            <stop offset="0" stop-color="#fff"/>
            <stop offset="1" stop-color="#656565"/>
        </linearGradient>
        <linearGradient id="_Linear8" x1="0" x2="1" y1="0" y2="0"
                        gradientTransform="rotate(-90 347.767 -39.855) scale(48.15)" gradientUnits="userSpaceOnUse">
            <stop offset="0" stop-color="#fff"/>
            <stop offset="1" stop-color="#656565"/>
        </linearGradient>
        <linearGradient id="_Linear9" x1="0" x2="1" y1="0" y2="0"
                        gradientTransform="matrix(0 48.15 48.15 0 387.584 260.069)" gradientUnits="userSpaceOnUse">
            <stop offset="0" stop-color="#fff"/>
            <stop offset="1" stop-color="#656565"/>
        </linearGradient>
        <linearGradient id="_Linear10" x1="0" x2="1" y1="0" y2="0"
                        gradientTransform="rotate(-90 525.243 -145.816) scale(119.769)" gradientUnits="userSpaceOnUse">
            <stop offset="0" stop-color="#fff"/>
            <stop offset="1" stop-color="#656565"/>
        </linearGradient>
    </defs>
</svg>