<?xml version="1.0" encoding="UTF-8" standalone="no"?>
<!DOCTYPE svg PUBLIC "-//W3C//DTD SVG 1.1//EN" "http://www.w3.org/Graphics/SVG/1.1/DTD/svg11.dtd">
<svg width="100%" height="100%" viewBox="0 0 883 121" version="1.1" xmlns="http://www.w3.org/2000/svg" xmlns:xlink="http://www.w3.org/1999/xlink" xml:space="preserve" xmlns:serif="http://www.serif.com/" style="fill-rule:evenodd;clip-rule:evenodd;stroke-linejoin:round;stroke-miterlimit:2;">
    <g transform="matrix(1,0,0,1,-199.15,-259.658)">
        <g>
            <g transform="matrix(124.37,0,0,124.37,189.946,359.416)">
                <path d="M0.074,-0.8L0.418,-0.8C0.571,-0.8 0.685,-0.8 0.762,-0.801C0.763,-0.75 0.763,-0.698 0.762,-0.646L0.256,-0.646L0.256,-0.363L0.596,-0.363C0.601,-0.379 0.607,-0.394 0.614,-0.407C0.625,-0.384 0.641,-0.349 0.663,-0.304C0.685,-0.259 0.701,-0.225 0.712,-0.202L0.257,-0.202L0.257,0.084C0.257,0.089 0.257,0.092 0.257,0.095C0.256,0.098 0.256,0.102 0.257,0.106C0.257,0.11 0.258,0.114 0.259,0.117C0.269,0.126 0.284,0.134 0.306,0.143C0.327,0.152 0.34,0.159 0.346,0.162C0.316,0.162 0.271,0.162 0.211,0.162C0.15,0.163 0.105,0.163 0.075,0.163C0.076,-0.159 0.076,-0.481 0.075,-0.802L0.074,-0.8Z" style="fill:url(#_Linear1);fill-rule:nonzero;"/>
            </g>
            <g transform="matrix(124.37,0,0,124.37,293.547,359.416)">
                <path d="M0.075,-0.8L0.48,-0.8C0.487,-0.8 0.497,-0.8 0.51,-0.799C0.523,-0.798 0.534,-0.797 0.545,-0.795C0.594,-0.788 0.64,-0.773 0.683,-0.75C0.725,-0.727 0.759,-0.698 0.785,-0.661C0.816,-0.619 0.833,-0.571 0.838,-0.518C0.842,-0.464 0.833,-0.414 0.811,-0.368C0.791,-0.325 0.761,-0.288 0.721,-0.259C0.68,-0.23 0.635,-0.211 0.586,-0.202C0.605,-0.175 0.626,-0.147 0.649,-0.117C0.672,-0.087 0.696,-0.055 0.722,-0.02C0.748,0.015 0.769,0.043 0.785,0.065C0.791,0.073 0.798,0.08 0.805,0.087C0.812,0.094 0.82,0.102 0.83,0.109C0.84,0.117 0.848,0.123 0.853,0.127C0.858,0.131 0.868,0.137 0.881,0.146C0.894,0.155 0.903,0.16 0.906,0.163L0.652,0.163C0.611,0.108 0.549,0.026 0.467,-0.083C0.384,-0.192 0.322,-0.273 0.281,-0.328L0.496,-0.328C0.539,-0.328 0.573,-0.344 0.598,-0.375C0.621,-0.405 0.634,-0.44 0.636,-0.478C0.639,-0.518 0.63,-0.553 0.609,-0.585C0.598,-0.602 0.583,-0.616 0.564,-0.625C0.545,-0.634 0.524,-0.639 0.503,-0.639L0.253,-0.639L0.253,0.105C0.26,0.112 0.269,0.119 0.279,0.125C0.288,0.132 0.3,0.139 0.315,0.146C0.329,0.154 0.339,0.16 0.344,0.163L0.075,0.163L0.075,-0.801L0.075,-0.8Z" style="fill:url(#_Linear2);fill-rule:nonzero;"/>
            </g>
            <g transform="matrix(123.711,0,0,123.711,630.039,359.262)">
                <path d="M0.063,-0.8L0.889,-0.8C0.89,-0.747 0.89,-0.695 0.889,-0.642L0.34,-0.642L0.34,-0.393L0.799,-0.393C0.78,-0.35 0.749,-0.285 0.704,-0.2C0.703,-0.203 0.701,-0.209 0.698,-0.219C0.695,-0.229 0.691,-0.236 0.688,-0.241L0.341,-0.241L0.341,0.016C0.341,0.016 0.524,0.016 0.891,0.016C0.891,0.016 0.891,0.065 0.891,0.163C0.891,0.163 0.645,0.163 0.152,0.163L0.152,-0.557C0.152,-0.572 0.152,-0.605 0.153,-0.654C0.153,-0.703 0.152,-0.735 0.151,-0.751C0.143,-0.757 0.135,-0.763 0.126,-0.768C0.117,-0.773 0.106,-0.78 0.092,-0.787C0.077,-0.794 0.068,-0.798 0.065,-0.8L0.063,-0.8Z" style="fill:url(#_Linear3);fill-rule:nonzero;"/>
            </g>
            <g transform="matrix(124.37,0,0,124.37,744.868,359.416)">
                <path d="M0.341,-0.8L0.34,-0.373L0.786,-0.373L0.787,-0.8L0.979,-0.8L0.978,0.116C0.984,0.121 0.991,0.125 0.999,0.13C1.007,0.135 1.014,0.139 1.018,0.141C1.024,0.144 1.031,0.148 1.042,0.153C1.053,0.158 1.06,0.162 1.063,0.163L0.785,0.163L0.786,-0.18L0.34,-0.181L0.339,0.163L0.147,0.163L0.148,-0.752C0.142,-0.757 0.135,-0.762 0.127,-0.767C0.119,-0.772 0.113,-0.775 0.108,-0.778C0.102,-0.781 0.095,-0.785 0.084,-0.79C0.073,-0.795 0.066,-0.799 0.063,-0.8L0.341,-0.8Z" style="fill:url(#_Linear4);fill-rule:nonzero;"/>
            </g>
            <g transform="matrix(2.48741,0,0,2.48741,-460.155,-386.217)">
                <path d="M577.721,259.658L577.721,263.242L577.7,263.242L577.7,287.113C577.7,289.48 577.566,291.613 577.3,293.513C577.033,295.413 576.633,297.063 576.1,298.463C575.033,301.23 573.083,303.513 570.25,305.313C567.45,307.047 563.766,307.913 559.2,307.913C554.766,307.913 551.15,307.163 548.35,305.663C545.516,304.13 543.5,301.913 542.3,299.013C541.1,296.047 540.5,292.08 540.5,287.113L540.5,261.663L540.4,261.713C540.133,261.447 539.866,261.213 539.6,261.013C539.333,260.813 538.95,260.563 538.45,260.263C537.95,259.963 537.666,259.797 537.6,259.763L546.688,259.763L550.483,259.699L550.066,290.17C549.735,301.073 567.362,301.481 567.491,290.17L567.451,263.242L567.408,263.242L567.408,261.568L564.561,259.658L577.721,259.658Z" style="fill:url(#_Linear5);fill-rule:nonzero;"/>
            </g>
            <g transform="matrix(2.39107,0,0,2.39107,-382.556,-357.97)">
                <path d="M360.979,278.728C365.403,270.252 368.943,263.463 371.6,258.363L386.05,286.463L400.5,258.363C404.766,266.63 413.516,283.413 426.75,308.713L409.85,308.713C410.116,308.547 410.55,308.322 411.15,308.038C411.75,307.755 412.233,307.522 412.6,307.338C412.966,307.155 413.366,306.897 413.8,306.563C414.233,306.23 414.583,305.863 414.85,305.463L401.9,278.113C400.2,281.18 397.6,285.988 394.1,292.538C390.6,299.088 387.916,304.063 386.05,307.463C384.516,304.663 381.983,299.955 378.45,293.338C374.916,286.722 372.166,281.647 370.2,278.113L365.657,287.708L360.979,278.728Z" style="fill:url(#_Linear6);fill-rule:nonzero;"/>
            </g>
            <g transform="matrix(2.48741,0,0,2.48741,-347.617,-386.217)">
                <path d="M541.804,259.658L541.804,308.113L558.075,308.113C562.292,308.113 566.724,307.388 570.354,304.194C573.693,301.219 574.492,297.221 574.492,294.385C574.492,291.841 573.911,288.06 571.007,285.3C569.773,284.139 567.886,282.76 564.692,282.252C565.995,281.527 570.132,278.985 570.132,272.732C570.132,268.66 568.463,264.883 565.632,262.706C561.712,259.658 556.477,259.658 553.786,259.658L541.804,259.658ZM551.24,287.042L554.731,287.042C556.768,287.042 559.168,287.042 561.204,287.987C564.255,289.368 564.764,291.986 564.764,293.513C564.764,295.403 564.11,297.73 561.783,299.112C559.675,300.348 557.057,300.42 555.312,300.42L551.24,300.42L551.24,287.042ZM551.24,267.351L554.004,267.351C557.859,267.351 561.277,269.023 561.277,273.459C561.277,279.64 555.386,279.785 553.931,279.785L551.24,279.785L551.24,267.351Z" style="fill:url(#_Linear7);fill-rule:nonzero;"/>
                <g transform="matrix(1,0,0,1,1.24742,-0.103394)">
                    <path d="M540.559,261.68L537.701,259.763L540.631,259.763L540.559,261.68Z" style="fill:url(#_Linear8);"/>
                </g>
                <g transform="matrix(1,0,0,-1,1.28474,567.877)">
                    <path d="M540.559,261.68L537.701,259.763L540.631,259.763L540.559,261.68Z" style="fill:url(#_Linear9);"/>
                </g>
            </g>
            <g transform="matrix(1,0,0,1,-51.4005,0)">
                <path d="M443.286,338.574C444.821,335.566 446.419,332.439 448.077,329.194C459.56,306.724 468.121,289.852 473.759,278.575L473.884,278.7C474.796,276.958 476.33,273.953 478.485,269.683C480.641,265.413 482.341,262.158 483.585,259.92C490.632,273.186 500.603,292.09 513.496,316.633C526.389,341.175 534.535,356.721 537.934,363.272C543.324,373.553 546.184,379.067 546.516,379.813C544.36,379.813 540.132,379.833 533.83,379.875C527.529,379.916 522.202,379.937 517.849,379.937C513.496,379.937 509.246,379.854 505.101,379.688C505.93,379.108 507.153,378.424 508.77,377.636C510.386,376.849 511.817,376.061 513.06,375.273C514.304,374.486 515.34,373.594 516.17,372.599C503.152,345.404 492.29,322.851 483.585,304.942C481.425,309.189 472.764,326.752 457.602,357.628L443.286,338.574Z" style="fill:url(#_Linear10);fill-rule:nonzero;"/>
            </g>
        </g>
    </g>
    <defs>
        <linearGradient id="_Linear1" x1="0" y1="0" x2="1" y2="0" gradientUnits="userSpaceOnUse" gradientTransform="matrix(5.89667e-17,-0.963,0.963,5.89667e-17,3.4551,0.160896)"><stop offset="0" style="stop-color:white;stop-opacity:1"/><stop offset="1" style="stop-color:rgb(101,101,101);stop-opacity:1"/></linearGradient>
        <linearGradient id="_Linear2" x1="0" y1="0" x2="1" y2="0" gradientUnits="userSpaceOnUse" gradientTransform="matrix(5.89667e-17,-0.963,0.963,5.89667e-17,2.6221,0.160896)"><stop offset="0" style="stop-color:white;stop-opacity:1"/><stop offset="1" style="stop-color:rgb(101,101,101);stop-opacity:1"/></linearGradient>
        <linearGradient id="_Linear3" x1="0" y1="0" x2="1" y2="0" gradientUnits="userSpaceOnUse" gradientTransform="matrix(5.92809e-17,-0.968131,0.968131,5.92809e-17,-0.0839162,0.163)"><stop offset="0" style="stop-color:white;stop-opacity:1"/><stop offset="1" style="stop-color:rgb(101,101,101);stop-opacity:1"/></linearGradient>
        <linearGradient id="_Linear4" x1="0" y1="0" x2="1" y2="0" gradientUnits="userSpaceOnUse" gradientTransform="matrix(5.89667e-17,-0.963,0.963,5.89667e-17,-1.00675,0.160896)"><stop offset="0" style="stop-color:white;stop-opacity:1"/><stop offset="1" style="stop-color:rgb(101,101,101);stop-opacity:1"/></linearGradient>
        <linearGradient id="_Linear5" x1="0" y1="0" x2="1" y2="0" gradientUnits="userSpaceOnUse" gradientTransform="matrix(2.94834e-15,-48.15,48.15,2.94834e-15,434.112,307.808)"><stop offset="0" style="stop-color:white;stop-opacity:1"/><stop offset="1" style="stop-color:rgb(101,101,101);stop-opacity:1"/></linearGradient>
        <linearGradient id="_Linear6" x1="0" y1="0" x2="1" y2="0" gradientUnits="userSpaceOnUse" gradientTransform="matrix(3.06712e-15,-50.0899,50.0899,3.06712e-15,419.148,308.396)"><stop offset="0" style="stop-color:white;stop-opacity:1"/><stop offset="1" style="stop-color:rgb(101,101,101);stop-opacity:1"/></linearGradient>
        <linearGradient id="_Linear7" x1="0" y1="0" x2="1" y2="0" gradientUnits="userSpaceOnUse" gradientTransform="matrix(2.94834e-15,-48.15,48.15,2.94834e-15,388.869,307.808)"><stop offset="0" style="stop-color:white;stop-opacity:1"/><stop offset="1" style="stop-color:rgb(101,101,101);stop-opacity:1"/></linearGradient>
        <linearGradient id="_Linear8" x1="0" y1="0" x2="1" y2="0" gradientUnits="userSpaceOnUse" gradientTransform="matrix(2.94834e-15,-48.15,48.15,2.94834e-15,387.621,307.912)"><stop offset="0" style="stop-color:white;stop-opacity:1"/><stop offset="1" style="stop-color:rgb(101,101,101);stop-opacity:1"/></linearGradient>
        <linearGradient id="_Linear9" x1="0" y1="0" x2="1" y2="0" gradientUnits="userSpaceOnUse" gradientTransform="matrix(2.94834e-15,48.15,48.15,-2.94834e-15,387.584,260.069)"><stop offset="0" style="stop-color:white;stop-opacity:1"/><stop offset="1" style="stop-color:rgb(101,101,101);stop-opacity:1"/></linearGradient>
        <linearGradient id="_Linear10" x1="0" y1="0" x2="1" y2="0" gradientUnits="userSpaceOnUse" gradientTransform="matrix(7.33371e-15,-119.769,119.769,7.33371e-15,671.058,379.427)"><stop offset="0" style="stop-color:white;stop-opacity:1"/><stop offset="1" style="stop-color:rgb(101,101,101);stop-opacity:1"/></linearGradient>
    </defs>
</svg>
